Coordinates
version=1
nRows=17
nColumns=38
inDegrees=no

Units are S.I. units (second, meters, Newtons, ...)
If the header above contains a line with 'inDegrees', this indicates whether rotational values are in degrees (yes) or radians (no).

endheader
time	pelvis_tilt	pelvis_list	pelvis_rotation	pelvis_tx	pelvis_ty	pelvis_tz	hip_flexion_r	hip_adduction_r	hip_rotation_r	knee_angle_r	ankle_angle_r	subtalar_angle_r	mtp_angle_r	hip_flexion_l	hip_adduction_l	hip_rotation_l	knee_angle_l	ankle_angle_l	subtalar_angle_l	mtp_angle_l	lumbar_extension	lumbar_bending	lumbar_rotation	arm_flex_r	arm_add_r	arm_rot_r	elbow_flex_r	pro_sup_r	wrist_flex_r	wrist_dev_r	arm_flex_l	arm_add_l	arm_rot_l	elbow_flex_l	pro_sup_l	wrist_flex_l	wrist_dev_l
0	-3.12407	1.50617	1.75499	0.527094	1.36558	1.07012	0.102789	0.0109674	-0.0826717	0.243365	-0.234125	0	0	0.234261	-0.175971	-0.477743	0.60615	-0.266328	0	0	-0.251008	0.0440651	0.332873	-0.551027	-0.38176	-0.146495	1.3665	1.29297	0	0	0.555029	-0.434287	1.5708	0.953375	1.01608	0	0
0.01	-3.12036	1.51047	1.75359	0.527885	1.36502	1.07047	0.0968535	0.0110419	-0.0846044	0.242925	-0.233686	0	0	0.227761	-0.176881	-0.477412	0.604155	-0.265788	0	0	-0.25772	0.04275	0.329481	-0.549971	-0.380605	-0.148774	1.3673	1.29353	0	0	0.505302	-0.446722	1.47926	0.967138	1.05001	0	0
0.02	-3.12657	1.51468	1.76288	0.52889	1.3644	1.07088	0.0925706	0.00984538	-0.0906605	0.246908	-0.230224	0	0	0.221311	-0.175526	-0.47487	0.601112	-0.264205	0	0	-0.26056	0.0441753	0.336755	-0.560973	-0.376055	-0.16064	1.37155	1.29309	0	0	0.517388	-0.438994	1.50124	0.96405	1.03297	0	0
0.03	-3.1303	1.51747	1.76781	0.529745	1.36355	1.07105	0.0896603	0.00885595	-0.0930933	0.250448	-0.228911	0	0	0.215567	-0.174783	-0.475876	0.598787	-0.262944	0	0	-0.263968	0.0449428	0.340769	-0.568231	-0.374971	-0.16701	1.37578	1.2929	0	0	0.521138	-0.436483	1.50638	0.965915	1.03078	0	0
0.04	-3.14029	1.52562	1.77926	0.530682	1.36293	1.07165	0.0808261	0.00863446	-0.0972633	0.253719	-0.224581	0	0	0.20392	-0.174328	-0.475913	0.595865	-0.257576	0	0	-0.268844	0.0479624	0.36646	-0.594641	-0.360124	-0.198533	1.38494	1.29505	0	0	0.548879	-0.412482	1.55713	0.950991	0.997172	0	0
0.05	3.13487	1.53258	1.78648	0.53136	1.36214	1.07211	0.0732373	0.00889602	-0.0979951	0.256261	-0.222644	0	0	0.192825	-0.174812	-0.479726	0.593454	-0.254079	0	0	-0.279354	0.0494716	0.380164	-0.609233	-0.35469	-0.215353	1.39484	1.29455	0	0	0.558798	-0.404092	1.56787	0.951129	0.994678	0	0
0.06	3.13245	1.54008	1.78897	0.532112	1.36164	1.07258	0.0653363	0.00954784	-0.0992363	0.25866	-0.221579	0	0	0.182373	-0.175497	-0.481973	0.591943	-0.251543	0	0	-0.292586	0.0504561	0.392337	-0.622024	-0.351149	-0.229468	1.40459	1.29327	0	0	0.568178	-0.397996	1.5708	0.955011	0.994635	0	0
0.07	-3.12944	1.54665	1.76886	0.533009	1.36134	1.07292	0.0584669	0.010636	-0.100357	0.260535	-0.221025	0	0	0.174372	-0.176498	-0.482467	0.591828	-0.249836	0	0	-0.30453	0.0507507	0.403069	-0.632898	-0.349032	-0.240261	1.41171	1.29171	0	0	0.578047	-0.39308	1.5708	0.960634	0.994495	0	0
0.08	2.21748	1.55136	2.7078	0.533653	1.36261	1.07672	0.045401	-0.00605508	-0.10406	0.26805	-0.221112	0	0	0.0998449	-0.0802226	-0.28136	0.400643	-0.254415	0	0	-0.313178	0.0251131	0.394058	-0.610342	-0.358831	-0.213326	1.38441	1.27137	0	0	0.591922	-0.396694	1.5708	0.963836	0.980718	0	0
0.09	-3.08736	1.54854	1.72633	0.534283	1.35935	1.07271	0.0553851	0.0109452	-0.0982498	0.263577	-0.217775	0	0	0.167431	-0.177356	-0.488529	0.589461	-0.24674	0	0	-0.304761	0.0533388	0.405584	-0.641182	-0.353077	-0.240699	1.41602	1.28157	0	0	0.576608	-0.393613	1.5708	0.966931	0.991127	0	0
0.1	-3.08536	1.54117	1.72473	0.534755	1.3581	1.07198	0.0633034	0.00941222	-0.0965213	0.266803	-0.215173	0	0	0.173303	-0.176126	-0.490355	0.588163	-0.24777	0	0	-0.293358	0.0546136	0.386585	-0.630062	-0.366822	-0.219186	1.4122	1.27508	0	0	0.559341	-0.408977	1.55953	0.976367	0.998469	0	0
0.11	-3.07864	1.53693	1.71741	0.535022	1.35708	1.0716	0.0674677	0.00905185	-0.0933699	0.267806	-0.214721	0	0	0.175689	-0.175835	-0.492812	0.586718	-0.248385	0	0	-0.285512	0.0560613	0.37609	-0.624502	-0.375237	-0.206793	1.41126	1.27322	0	0	0.545168	-0.417844	1.54092	0.981353	0.998775	0	0
0.12	-3.07875	1.53487	1.71748	0.535375	1.35621	1.07142	0.0690106	0.00877213	-0.0899575	0.268352	-0.214079	0	0	0.175828	-0.174995	-0.493285	0.584605	-0.24828	0	0	-0.28082	0.0566842	0.367478	-0.620214	-0.382941	-0.196518	1.41173	1.27014	0	0	0.536315	-0.425676	1.52895	0.987766	0.997585	0	0
0.13	-3.06979	1.53323	1.71021	0.535993	1.35532	1.07129	0.0695779	0.00850372	-0.0903226	0.26833	-0.213502	0	0	0.176081	-0.17422	-0.491783	0.583	-0.24763	0	0	-0.276142	0.0578677	0.359741	-0.617822	-0.389765	-0.188552	1.41316	1.26463	0	0	0.530988	-0.431346	1.52282	0.993214	0.995017	0	0
0.14	-3.05983	1.53068	1.69888	0.536313	1.35412	1.07103	0.0713595	0.00839539	-0.0885011	0.268788	-0.21306	0	0	0.175693	-0.174522	-0.495497	0.581184	-0.247215	0	0	-0.269521	0.0585729	0.358378	-0.618992	-0.3934	-0.185884	1.41544	1.26097	0	0	0.526307	-0.433714	1.51808	0.995694	0.991009	0	0
0.15	-3.05246	1.52962	1.6901	0.536554	1.35307	1.07095	0.0716644	0.00842617	-0.0875624	0.269171	-0.212899	0	0	0.17404	-0.174993	-0.49918	0.579694	-0.246978	0	0	-0.265202	0.0589783	0.359258	-0.621381	-0.395626	-0.18633	1.41915	1.25879	0	0	0.524937	-0.434807	1.51569	0.998171	0.987442	0	0
0.16	-3.04679	1.53081	1.68368	0.5368	1.35229	1.07109	0.0697719	0.00858342	-0.088501	0.269712	-0.212456	0	0	0.170661	-0.175492	-0.501774	0.578418	-0.246638	0	0	-0.263287	0.0596081	0.363369	-0.626395	-0.395798	-0.191242	1.42484	1.25365	0	0	0.529811	-0.432984	1.52158	0.999757	0.974874	0	0
